<mxfile host="app.diagrams.net" modified="2023-08-22T18:04:33.766Z" agent="Mozilla/5.0 (X11; Linux x86_64) AppleWebKit/537.36 (KHTML, like Gecko) Chrome/116.0.0.0 Safari/537.36" etag="t1nwQFO-e4pXYVSOd6_K" version="21.6.8" type="github">
  <diagram name="Page-1" id="bpSRBZkaEDAbvH9TaQkX">
    <mxGraphModel dx="880" dy="459" grid="1" gridSize="10" guides="1" tooltips="1" connect="1" arrows="1" fold="1" page="1" pageScale="1" pageWidth="850" pageHeight="1100" math="0" shadow="0">
      <root>
        <mxCell id="0" />
        <mxCell id="1" parent="0" />
        <mxCell id="I4VvtKPD5eLJoSUdn9RU-13" style="edgeStyle=orthogonalEdgeStyle;rounded=0;orthogonalLoop=1;jettySize=auto;html=1;entryX=0.418;entryY=-0.05;entryDx=0;entryDy=0;entryPerimeter=0;" parent="1" source="I4VvtKPD5eLJoSUdn9RU-1" target="I4VvtKPD5eLJoSUdn9RU-4" edge="1">
          <mxGeometry relative="1" as="geometry" />
        </mxCell>
        <mxCell id="I4VvtKPD5eLJoSUdn9RU-1" value="START" style="strokeWidth=2;html=1;shape=mxgraph.flowchart.start_1;whiteSpace=wrap;" parent="1" vertex="1">
          <mxGeometry x="310" y="110" width="100" height="30" as="geometry" />
        </mxCell>
        <mxCell id="ksatI7caoKyLMasILUwb-4" style="edgeStyle=orthogonalEdgeStyle;rounded=0;orthogonalLoop=1;jettySize=auto;html=1;" edge="1" parent="1" source="I4VvtKPD5eLJoSUdn9RU-2">
          <mxGeometry relative="1" as="geometry">
            <mxPoint x="355" y="270" as="targetPoint" />
          </mxGeometry>
        </mxCell>
        <mxCell id="I4VvtKPD5eLJoSUdn9RU-2" value="Enter radius of cylinder(r),height of cylinder(h),&lt;br&gt;length of cuboid(l),height of cuboid(h),&lt;br&gt;width of cuboid(w),side of cube" style="shape=parallelogram;html=1;strokeWidth=2;perimeter=parallelogramPerimeter;whiteSpace=wrap;rounded=1;arcSize=12;size=0.23;" parent="1" vertex="1">
          <mxGeometry x="157.5" y="190" width="385" height="60" as="geometry" />
        </mxCell>
        <mxCell id="I4VvtKPD5eLJoSUdn9RU-16" style="edgeStyle=orthogonalEdgeStyle;rounded=0;orthogonalLoop=1;jettySize=auto;html=1;entryX=0.628;entryY=-0.06;entryDx=0;entryDy=0;entryPerimeter=0;" parent="1" source="I4VvtKPD5eLJoSUdn9RU-3" target="I4VvtKPD5eLJoSUdn9RU-8" edge="1">
          <mxGeometry relative="1" as="geometry" />
        </mxCell>
        <mxCell id="I4VvtKPD5eLJoSUdn9RU-3" value="Is shape &lt;br&gt;cylinder?" style="strokeWidth=2;html=1;shape=mxgraph.flowchart.decision;whiteSpace=wrap;" parent="1" vertex="1">
          <mxGeometry x="270" y="290" width="100" height="40" as="geometry" />
        </mxCell>
        <mxCell id="I4VvtKPD5eLJoSUdn9RU-14" style="edgeStyle=orthogonalEdgeStyle;rounded=0;orthogonalLoop=1;jettySize=auto;html=1;entryX=0.5;entryY=0;entryDx=0;entryDy=0;" parent="1" source="I4VvtKPD5eLJoSUdn9RU-4" target="I4VvtKPD5eLJoSUdn9RU-2" edge="1">
          <mxGeometry relative="1" as="geometry" />
        </mxCell>
        <mxCell id="I4VvtKPD5eLJoSUdn9RU-4" value="pi = 3.14" style="rounded=1;whiteSpace=wrap;html=1;absoluteArcSize=1;arcSize=14;strokeWidth=2;" parent="1" vertex="1">
          <mxGeometry x="310" y="160" width="110" height="20" as="geometry" />
        </mxCell>
        <mxCell id="ksatI7caoKyLMasILUwb-16" style="edgeStyle=orthogonalEdgeStyle;rounded=0;orthogonalLoop=1;jettySize=auto;html=1;" edge="1" parent="1" source="I4VvtKPD5eLJoSUdn9RU-5" target="I4VvtKPD5eLJoSUdn9RU-22">
          <mxGeometry relative="1" as="geometry" />
        </mxCell>
        <mxCell id="I4VvtKPD5eLJoSUdn9RU-5" value="Print surface area of cube,&lt;br&gt;cuboid,closed cylinder and &lt;br&gt;open cylinder" style="shape=parallelogram;html=1;strokeWidth=2;perimeter=parallelogramPerimeter;whiteSpace=wrap;rounded=1;arcSize=12;size=0.23;" parent="1" vertex="1">
          <mxGeometry x="174.38" y="490" width="250" height="50" as="geometry" />
        </mxCell>
        <mxCell id="ksatI7caoKyLMasILUwb-11" style="edgeStyle=orthogonalEdgeStyle;rounded=0;orthogonalLoop=1;jettySize=auto;html=1;entryX=0.855;entryY=0.145;entryDx=0;entryDy=0;entryPerimeter=0;" edge="1" parent="1" source="I4VvtKPD5eLJoSUdn9RU-8" target="ksatI7caoKyLMasILUwb-9">
          <mxGeometry relative="1" as="geometry" />
        </mxCell>
        <mxCell id="I4VvtKPD5eLJoSUdn9RU-8" value="&lt;span style=&quot;color: rgb(0, 0, 0); font-family: Helvetica; font-size: 12px; font-style: normal; font-variant-ligatures: normal; font-variant-caps: normal; font-weight: 400; letter-spacing: normal; orphans: 2; text-align: center; text-indent: 0px; text-transform: none; widows: 2; word-spacing: 0px; -webkit-text-stroke-width: 0px; background-color: rgb(251, 251, 251); text-decoration-thickness: initial; text-decoration-style: initial; text-decoration-color: initial; float: none; display: inline !important;&quot;&gt;surface area of closed cylinder =2*pi*r(r+h)&lt;br&gt;surface area of open cylinder =2*pi*r*h + pi*r&lt;sup style=&quot;border-color: var(--border-color);&quot;&gt;2&lt;/sup&gt;&lt;br&gt;&lt;/span&gt;" style="rounded=1;whiteSpace=wrap;html=1;absoluteArcSize=1;arcSize=14;strokeWidth=2;" parent="1" vertex="1">
          <mxGeometry x="220" y="355" width="158.75" height="60" as="geometry" />
        </mxCell>
        <mxCell id="ksatI7caoKyLMasILUwb-15" style="edgeStyle=orthogonalEdgeStyle;rounded=0;orthogonalLoop=1;jettySize=auto;html=1;entryX=0;entryY=0.5;entryDx=0;entryDy=0;entryPerimeter=0;" edge="1" parent="1" source="I4VvtKPD5eLJoSUdn9RU-9" target="ksatI7caoKyLMasILUwb-9">
          <mxGeometry relative="1" as="geometry" />
        </mxCell>
        <mxCell id="I4VvtKPD5eLJoSUdn9RU-9" value="&lt;span style=&quot;color: rgb(0, 0, 0); font-family: Helvetica; font-size: 12px; font-style: normal; font-variant-ligatures: normal; font-variant-caps: normal; font-weight: 400; letter-spacing: normal; orphans: 2; text-align: center; text-indent: 0px; text-transform: none; widows: 2; word-spacing: 0px; -webkit-text-stroke-width: 0px; background-color: rgb(251, 251, 251); text-decoration-thickness: initial; text-decoration-style: initial; text-decoration-color: initial; float: none; display: inline !important;&quot;&gt;surface area of cuboid = 2((l*w)+(w*h)+(h*w)&lt;/span&gt;" style="rounded=1;whiteSpace=wrap;html=1;absoluteArcSize=1;arcSize=14;strokeWidth=2;" parent="1" vertex="1">
          <mxGeometry x="107.5" y="370" width="85" height="70" as="geometry" />
        </mxCell>
        <mxCell id="I4VvtKPD5eLJoSUdn9RU-10" style="edgeStyle=orthogonalEdgeStyle;rounded=0;orthogonalLoop=1;jettySize=auto;html=1;exitX=0.5;exitY=1;exitDx=0;exitDy=0;" parent="1" source="I4VvtKPD5eLJoSUdn9RU-9" target="I4VvtKPD5eLJoSUdn9RU-9" edge="1">
          <mxGeometry relative="1" as="geometry" />
        </mxCell>
        <mxCell id="I4VvtKPD5eLJoSUdn9RU-22" value="STOP" style="strokeWidth=2;html=1;shape=mxgraph.flowchart.start_1;whiteSpace=wrap;" parent="1" vertex="1">
          <mxGeometry x="260" y="570" width="80" height="30" as="geometry" />
        </mxCell>
        <mxCell id="I4VvtKPD5eLJoSUdn9RU-24" value="NO" style="text;html=1;align=center;verticalAlign=middle;resizable=0;points=[];autosize=1;strokeColor=none;fillColor=none;" parent="1" vertex="1">
          <mxGeometry x="780" y="40" width="40" height="30" as="geometry" />
        </mxCell>
        <mxCell id="I4VvtKPD5eLJoSUdn9RU-25" value="YES" style="text;html=1;align=center;verticalAlign=middle;resizable=0;points=[];autosize=1;strokeColor=none;fillColor=none;" parent="1" vertex="1">
          <mxGeometry x="690" y="60" width="50" height="30" as="geometry" />
        </mxCell>
        <mxCell id="ksatI7caoKyLMasILUwb-7" style="edgeStyle=orthogonalEdgeStyle;rounded=0;orthogonalLoop=1;jettySize=auto;html=1;entryX=0.6;entryY=0.02;entryDx=0;entryDy=0;entryPerimeter=0;" edge="1" parent="1" source="ksatI7caoKyLMasILUwb-1" target="ksatI7caoKyLMasILUwb-6">
          <mxGeometry relative="1" as="geometry" />
        </mxCell>
        <mxCell id="ksatI7caoKyLMasILUwb-1" value="Is shape&lt;br&gt;&amp;nbsp;cube?" style="strokeWidth=2;html=1;shape=mxgraph.flowchart.decision;whiteSpace=wrap;" vertex="1" parent="1">
          <mxGeometry x="430" y="290" width="100" height="50" as="geometry" />
        </mxCell>
        <mxCell id="ksatI7caoKyLMasILUwb-8" style="edgeStyle=orthogonalEdgeStyle;rounded=0;orthogonalLoop=1;jettySize=auto;html=1;" edge="1" parent="1" source="ksatI7caoKyLMasILUwb-2" target="I4VvtKPD5eLJoSUdn9RU-9">
          <mxGeometry relative="1" as="geometry" />
        </mxCell>
        <mxCell id="ksatI7caoKyLMasILUwb-2" value="Is shape &lt;br&gt;cuboid?" style="strokeWidth=2;html=1;shape=mxgraph.flowchart.decision;whiteSpace=wrap;" vertex="1" parent="1">
          <mxGeometry x="100" y="290" width="100" height="60" as="geometry" />
        </mxCell>
        <mxCell id="ksatI7caoKyLMasILUwb-3" value="" style="endArrow=none;html=1;rounded=0;" edge="1" parent="1">
          <mxGeometry width="50" height="50" relative="1" as="geometry">
            <mxPoint x="150" y="270" as="sourcePoint" />
            <mxPoint x="480" y="270" as="targetPoint" />
          </mxGeometry>
        </mxCell>
        <mxCell id="ksatI7caoKyLMasILUwb-12" style="edgeStyle=orthogonalEdgeStyle;rounded=0;orthogonalLoop=1;jettySize=auto;html=1;entryX=1;entryY=0.5;entryDx=0;entryDy=0;entryPerimeter=0;" edge="1" parent="1" source="ksatI7caoKyLMasILUwb-6" target="ksatI7caoKyLMasILUwb-9">
          <mxGeometry relative="1" as="geometry" />
        </mxCell>
        <mxCell id="ksatI7caoKyLMasILUwb-6" value="&lt;span style=&quot;color: rgb(0, 0, 0); font-family: Helvetica; font-size: 12px; font-style: normal; font-variant-ligatures: normal; font-variant-caps: normal; font-weight: 400; letter-spacing: normal; orphans: 2; text-align: center; text-indent: 0px; text-transform: none; widows: 2; word-spacing: 0px; -webkit-text-stroke-width: 0px; background-color: rgb(251, 251, 251); text-decoration-thickness: initial; text-decoration-style: initial; text-decoration-color: initial; float: none; display: inline !important;&quot;&gt;surface area of cube=6*s&lt;sup&gt;2&lt;/sup&gt;&lt;/span&gt;" style="rounded=1;whiteSpace=wrap;html=1;absoluteArcSize=1;arcSize=14;strokeWidth=2;" vertex="1" parent="1">
          <mxGeometry x="425" y="360" width="90" height="50" as="geometry" />
        </mxCell>
        <mxCell id="ksatI7caoKyLMasILUwb-10" style="edgeStyle=orthogonalEdgeStyle;rounded=0;orthogonalLoop=1;jettySize=auto;html=1;entryX=0.608;entryY=0.04;entryDx=0;entryDy=0;entryPerimeter=0;" edge="1" parent="1" source="ksatI7caoKyLMasILUwb-9" target="I4VvtKPD5eLJoSUdn9RU-5">
          <mxGeometry relative="1" as="geometry" />
        </mxCell>
        <mxCell id="ksatI7caoKyLMasILUwb-9" value="" style="verticalLabelPosition=bottom;verticalAlign=top;html=1;shape=mxgraph.flowchart.on-page_reference;" vertex="1" parent="1">
          <mxGeometry x="310" y="440" width="30" height="20" as="geometry" />
        </mxCell>
        <mxCell id="ksatI7caoKyLMasILUwb-17" value="" style="endArrow=classic;html=1;rounded=0;entryX=0.5;entryY=0;entryDx=0;entryDy=0;entryPerimeter=0;" edge="1" parent="1" target="ksatI7caoKyLMasILUwb-2">
          <mxGeometry width="50" height="50" relative="1" as="geometry">
            <mxPoint x="150" y="270" as="sourcePoint" />
            <mxPoint x="220" y="280" as="targetPoint" />
          </mxGeometry>
        </mxCell>
        <mxCell id="ksatI7caoKyLMasILUwb-18" value="" style="endArrow=classic;html=1;rounded=0;entryX=0.5;entryY=0;entryDx=0;entryDy=0;entryPerimeter=0;" edge="1" parent="1" target="I4VvtKPD5eLJoSUdn9RU-3">
          <mxGeometry width="50" height="50" relative="1" as="geometry">
            <mxPoint x="320" y="270" as="sourcePoint" />
            <mxPoint x="220" y="280" as="targetPoint" />
          </mxGeometry>
        </mxCell>
        <mxCell id="ksatI7caoKyLMasILUwb-19" value="" style="endArrow=classic;html=1;rounded=0;entryX=0.5;entryY=0;entryDx=0;entryDy=0;entryPerimeter=0;" edge="1" parent="1" target="ksatI7caoKyLMasILUwb-1">
          <mxGeometry width="50" height="50" relative="1" as="geometry">
            <mxPoint x="480" y="270" as="sourcePoint" />
            <mxPoint x="220" y="280" as="targetPoint" />
          </mxGeometry>
        </mxCell>
      </root>
    </mxGraphModel>
  </diagram>
</mxfile>
